<svg xmlns="http://www.w3.org/2000/svg" viewBox="0 0 100 100" width="100%" height="100%">
  <defs>
    <linearGradient id="proGrad" x1="0%" y1="0%" x2="100%" y2="100%">
      <stop offset="0%" stop-color="#fb923c"/>
      <stop offset="50%" stop-color="#ea580c"/>
      <stop offset="100%" stop-color="#c2410c"/>
    </linearGradient>
    <filter id="shadowP">
      <feDropShadow dx="0" dy="4" stdDeviation="6" flood-color="#ea580c" flood-opacity="0.4"/>
    </filter>
  </defs>
  <circle cx="50" cy="50" r="42" fill="url(#proGrad)" filter="url(#shadowP)" opacity="0.2"/>
  <circle cx="50" cy="50" r="34" fill="url(#proGrad)"/>
  
  <!-- Crown / Rocket Pro Icon -->
  <path d="M32 63 L35 41 L43 49 L50 35 L57 49 L65 41 L68 63 Z" fill="#ffffff"/>
  <circle cx="35" cy="38" r="2.5" fill="#fef08a"/>
  <circle cx="50" cy="32" r="3" fill="#fef08a"/>
  <circle cx="65" cy="38" r="2.5" fill="#fef08a"/>
  <!-- Crown Base Bar -->
  <rect x="32" y="65" width="36" height="4" rx="2" fill="#ffffff" opacity="0.9"/>
  <!-- Sparkles -->
  <path d="M26 32 L28 35 L31 35 L29 37 L30 40 L27 38 L24 40 L25 37 L23 35 L26 35 Z" fill="#fef08a" transform="scale(0.7) translate(10, 10)"/>
</svg>
