<svg xmlns="http://www.w3.org/2000/svg" viewBox="0 0 100 100" width="100%" height="100%">
  <defs>
    <linearGradient id="entGrad" x1="0%" y1="0%" x2="100%" y2="100%">
      <stop offset="0%" stop-color="#a855f7"/>
      <stop offset="100%" stop-color="#6b21a8"/>
    </linearGradient>
    <filter id="shadowE">
      <feDropShadow dx="0" dy="4" stdDeviation="6" flood-color="#7e22ce" flood-opacity="0.35"/>
    </filter>
  </defs>
  <circle cx="50" cy="50" r="42" fill="url(#entGrad)" filter="url(#shadowE)" opacity="0.2"/>
  <circle cx="50" cy="50" r="34" fill="url(#entGrad)"/>
  
  <!-- Multi-branch / Skyscrapers / Diamond Icon -->
  <rect x="33" y="44" width="12" height="24" rx="2" fill="#ffffff"/>
  <rect x="47" y="32" width="14" height="36" rx="2" fill="#f3e8ff"/>
  <rect x="63" y="48" width="10" height="20" rx="2" fill="#ffffff"/>
  
  <!-- Windows -->
  <rect x="36" y="48" width="2" height="2" fill="#7e22ce"/>
  <rect x="41" y="48" width="2" height="2" fill="#7e22ce"/>
  <rect x="36" y="54" width="2" height="2" fill="#7e22ce"/>
  <rect x="41" y="54" width="2" height="2" fill="#7e22ce"/>
  
  <rect x="51" y="38" width="2" height="2" fill="#7e22ce"/>
  <rect x="57" y="38" width="2" height="2" fill="#7e22ce"/>
  <rect x="51" y="44" width="2" height="2" fill="#7e22ce"/>
  <rect x="57" y="44" width="2" height="2" fill="#7e22ce"/>
  <rect x="51" y="50" width="2" height="2" fill="#7e22ce"/>
  <rect x="57" y="50" width="2" height="2" fill="#7e22ce"/>

  <!-- Enterprise Star -->
  <polygon points="50,22 52,27 57,27 53,30 55,35 50,32 45,35 47,30 43,27 48,27" fill="#fbbf24"/>
</svg>
